<svg width="1379" height="452" viewBox="0 0 1379 452" fill="none" xmlns="http://www.w3.org/2000/svg">
<path d="M1222.87 446.84L1223.11 445.42C1229.34 445.21 1238.64 445.42 1249.19 445.7C1259.38 445.94 1270.85 446.22 1282.65 446.22C1318.96 446.22 1358.33 443.58 1372.81 429.22C1374.71 427.441 1376.22 425.283 1377.24 422.886C1378.25 420.488 1378.75 417.904 1378.71 415.3C1378.18 375.51 1341.71 326.61 1299.59 269.98C1296.01 265.18 1292.38 260.29 1288.74 255.37C1289.19 255 1289.68 254.57 1290.25 254.06C1290.82 253.55 1291.6 252.87 1292.48 252.12C1294.34 250.53 1292.85 248.27 1289.56 243.73C1287.43 240.73 1284.7 237.26 1282.7 234.73C1281.5 233.18 1280.36 231.73 1280.14 231.38C1279.3 230.09 1278.58 228.96 1277.95 227.96C1275.09 223.48 1273.95 221.62 1271.77 221.23C1270.11 220.93 1268.77 221.72 1266.84 223.13C1261.63 209.9 1266.64 199.51 1272.68 187.01C1280.52 170.81 1289.37 152.47 1278.87 122.67C1282.24 113.93 1283.01 105.12 1280.92 96.7998C1277.32 82.5198 1265.92 71.9498 1249.56 67.7998C1237.56 64.7998 1224.4 65.3098 1210.56 69.1698C1208.41 68.4433 1206.17 68.0356 1203.91 67.9598C1199.11 67.8898 1195.45 69.6298 1193.19 73.0998C1192.22 73.1696 1191.25 73.0852 1190.31 72.8498C1185.53 71.8434 1180.56 72.088 1175.9 73.5598C1170.38 75.2998 1169.02 78.4198 1167.82 81.1698C1167.21 82.8833 1166.22 84.4358 1164.92 85.7098C1164.78 85.8398 1164.29 86.1898 1163.85 86.4998C1160.66 88.7698 1153.35 93.9798 1152.54 101.89C1148.65 105.156 1144.77 108.63 1140.9 112.31C1139.57 112.133 1138.24 112.043 1136.9 112.04C1121.09 112.04 1108.22 124.13 1108.22 138.98C1108.22 141.512 1108.6 144.03 1109.35 146.45C1098.23 161.99 1092.84 177.58 1093.41 192.32C1085.22 204.22 1086.98 218.49 1090.41 229.32C1088.56 232.03 1086.41 234.83 1083.98 237.91C1080.98 241.74 1077.62 246.07 1074.33 251.01L1073.27 252.62L999.18 216L1000.94 212.58C1005.11 204.46 1016.08 194.68 1027.69 184.32C1048.91 165.4 1072.87 144.03 1073.33 119.77C1084.95 119.06 1095.84 108.96 1100.03 98.8798C1101.92 94.3398 1107.88 84.2798 1114.91 72.9498L1117.51 71.3198C1129.78 63.6298 1148.32 51.9998 1142.99 41.4498C1142.44 40.3905 1141.61 39.4971 1140.6 38.8611C1139.59 38.225 1138.42 37.8692 1137.23 37.8298C1141.11 31.7598 1144.16 26.9898 1145.84 24.2098C1152.78 12.7698 1155.53 7.04976 1153.48 3.46976C1151.91 0.739758 1148.23 0.239814 1142.78 0.339814C1134.96 0.469814 1113.57 0.979807 1108.5 1.76981C1101.25 2.88981 1099.94 4.28981 1090.21 16.7698C1089.29 17.9498 1088.34 19.1898 1087.38 20.4798C1066.93 23.7898 1059.27 25.0398 1047.58 45.8798C1046.5 47.8098 1045.58 49.4798 1044.7 50.9798C1043.62 52.8698 1042.7 54.4898 1041.88 55.9798C986.72 57.8298 898.49 68.4998 877.39 71.8898C869.07 73.2298 861.89 74.0798 855.56 74.8198C831.43 77.6698 818.14 79.2298 795.73 101.82C786.26 111.35 781.61 123.37 781.91 137.53C782.43 162.35 798.57 188.23 809.91 198.68C812.01 200.62 819.91 208.68 830.02 218.81C851.35 240.35 865.8 254.81 875.68 264.46C864.25 264.04 852.57 263.37 840.55 262.34C762.64 255.67 714.83 249.59 714.36 249.53L713.56 249.43C704.47 235.75 696.81 223.12 689.27 210.69C670.2 179.23 652.18 149.51 614.54 110.78C600.01 95.7798 582.13 88.2298 561.42 88.1998H561.31C530.56 88.1998 494.94 105.88 465.99 135.51C413.11 189.63 357.54 271.51 318.68 330.8C237.27 341.67 162.53 349.42 105.93 349.42H103.93V351.47C103.93 354.39 103.88 357.34 103.82 360.31C97.12 361.02 92.03 361.61 90.45 361.8C90.45 359.8 90.32 359.5 90.13 359.22C80.46 344.5 76.28 325.69 72.24 307.49C65.51 277.23 59.15 248.62 27.66 248.62C27.14 248.62 26.66 248.62 26.09 248.62C23.6 248.69 21.45 248.76 15.6 298.43C12.36 326.03 8.88999 361.43 6.09999 389.92C3.35999 417.92 0.989991 442.06 0.039991 446.36V446.54C-0.0400089 447.13 0.0399909 448.61 2.19999 449.43C6.66999 451.11 24.81 451.69 40.49 451.69H44.38C80.61 451.46 82.1 449.24 82.74 448.29C82.94 447.98 83.13 447.7 84.41 434.29C88.22 434.57 93.22 434.88 99.83 435.22C99.72 438.51 99.66 441.71 99.66 444.8V446.8H700.92H703.1H740.1L740.23 446.2L876.54 444.02L1222.87 446.84ZM87 404.21C88.44 388 89.3 377.74 89.78 371.21C90.7 368.89 91.36 367.12 91.78 365.78C95.71 365.32 99.68 364.87 103.63 364.45C103.24 376.92 102.39 389.64 101.55 402.06C100.87 412.21 100.22 421.97 99.86 431.06C94.17 430.75 88.94 430.44 84.68 430.15C85.26 424 86 415.57 87 404.21ZM107.82 359.89C107.82 357.76 107.9 355.64 107.91 353.52C163.64 353.34 236.41 345.85 315.64 335.34L321.01 334.63C374.89 327.42 431.62 318.86 487.92 310.3L494.08 309.36L503.08 307.98C518.26 305.666 533.26 303.39 548.08 301.15L552.38 300.5C584.7 295.62 615.94 291 645.38 286.92C645.88 287.48 646.38 288.02 646.83 288.5L648.98 286.43C670.53 283.43 691.1 280.79 710.39 278.54L706.2 352.43C696.81 353.72 647.78 357.6 592.2 361.69L585.48 362.18C530.39 366.18 470.29 370.36 436.69 372.34L430.44 372.7C420.98 373.23 414.36 373.53 411.58 373.53C376.16 373.53 334.83 375.39 292.85 377.67L287.76 377.95C275.76 378.61 263.66 379.3 251.68 379.95C220.5 381.73 188.68 383.55 158.77 384.77L156.77 384.85L154.72 384.93C137.88 385.6 121.72 386.05 106.62 386.2C107.07 378.78 107.45 371.34 107.67 363.98C107.67 363.29 107.67 362.61 107.67 361.98L107.82 359.89ZM1077.72 253.23C1080.92 248.41 1084.1 244.33 1087.18 240.37C1088.9 238.17 1090.55 236.05 1092.06 233.97C1093.63 237.989 1095.55 241.864 1097.8 245.55L1097.94 245.46C1092.56 251.01 1089.12 261 1086.07 273.21C1080.88 271.963 1075.66 270.873 1070.4 269.94C1070.44 267.085 1071.11 264.274 1072.34 261.7C1074.08 258.84 1075.91 256 1077.75 253.23H1077.72ZM1374.58 415.38C1374.63 417.44 1374.23 419.487 1373.42 421.384C1372.62 423.28 1371.42 424.983 1369.9 426.38C1351.9 444.13 1287.67 442.57 1249.26 441.64C1241.26 441.44 1234.4 441.28 1228.82 441.28C1227 441.28 1225.33 441.28 1223.82 441.28H1222.67C1223.07 437.92 1223.86 431.33 1224.87 423.14C1226.6 409.07 1228.96 390.28 1231.05 375.07C1232.42 365.13 1233.68 356.72 1234.57 352.17H1234.92L1236.92 352.31L1238.98 352.45C1245.85 352.91 1253.33 353.45 1254.98 353.66C1255.47 353.998 1256.03 354.234 1256.61 354.352C1257.19 354.471 1257.8 354.47 1258.38 354.35C1262.7 364.35 1266.97 374.91 1267.45 377.48L1271.45 376.74C1270.87 373.59 1264.65 358.33 1259.36 346.38C1258.84 344.88 1258.1 343.06 1257.11 340.85C1254.74 335.58 1250.99 328.28 1245.97 319.15C1238.24 305.08 1228.62 288.75 1221.13 276.15C1224.39 275.72 1227.61 275.075 1230.78 274.22C1246 270.36 1272.99 260.55 1278.23 248.69C1279.47 250.256 1280.62 251.885 1281.69 253.57C1282.69 255.09 1283.37 256.17 1284.48 256.57C1288.48 261.9 1292.36 267.18 1296.22 272.37C1338 328.52 1374.09 376.93 1374.61 415.38H1374.58ZM626.04 376.45C566.46 379.88 468.04 384.65 421.82 386.45L415.32 386.7C406.8 387.02 400.74 387.19 398 387.19C361.38 387.19 321.79 389.59 283.44 391.93L282.24 392L278.24 392.24C237.87 394.7 196.4 397.14 158.95 396.67H156.9H154.85H154.04C139.04 396.38 129.67 397.82 119.69 399.35C115.34 400.01 110.86 400.7 105.69 401.29C105.93 397.68 106.18 394.04 106.41 390.39C121.57 390.25 137.86 389.79 154.8 389.13L156.8 389.05L158.85 388.96C188.85 387.74 220.71 385.96 251.95 384.14C262.95 383.51 273.95 382.88 284.95 382.27L290.05 381.99C333.05 379.64 375.41 377.69 411.59 377.69C413.25 377.69 418.35 377.44 426.08 377L432.4 376.63C465.61 374.63 531.9 370.19 591.27 365.91L599.73 365.3C650.28 361.62 694.24 358.18 705.93 356.66L705.09 371.58C700.92 371.96 695.26 372.02 690.94 372.06C684.22 372.13 677.87 372.19 674.63 373.06C673.02 373.49 662.73 374.27 646.99 375.26C640.88 375.58 633.81 376 626.07 376.45H626.04ZM911.82 318.75C913.25 318.75 914.65 318.75 916.06 318.83C921.71 318.99 927.18 319.37 932.33 319.83C943.28 320.9 951.26 320.14 957.16 317.83C958.103 317.474 959.022 317.056 959.91 316.58C960.689 316.178 961.443 315.73 962.17 315.24C972.35 308.24 973.88 294.48 975.83 277.01C976.14 274.21 976.46 271.31 976.83 268.32C976.91 267.64 977 266.95 977.09 266.26C977.18 265.57 977.28 264.9 977.38 264.21C978 259.78 978.78 255.21 979.82 250.52C981.008 245.148 982.568 239.865 984.49 234.71C986.748 228.702 989.609 222.94 993.03 217.51C993.26 217.14 993.49 216.77 993.74 216.4L994.14 216.67L997.14 218.67L996.7 219.36C993.243 224.763 990.37 230.519 988.13 236.53C984.909 245.482 982.683 254.761 981.49 264.2C981.39 264.88 981.29 265.57 981.2 266.2L980.93 268.25C980.54 271.37 980.2 274.44 979.86 277.44C978.03 293.87 976.42 308.29 967.04 316.66C966.45 317.19 965.83 317.66 965.18 318.17C964.53 318.68 963.71 319.17 962.92 319.64C956.14 323.58 946.34 325.25 931.92 323.84C926.67 323.33 921.08 322.95 915.32 322.84C913.93 322.84 912.53 322.78 911.12 322.77C885.87 322.61 857.95 327.13 840.03 344.14C821.15 362.06 819.69 384.3 829.19 395.45C838.69 406.6 860.19 409.45 892.75 384.68C900.558 378.629 909.412 374.067 918.87 371.22C920.22 370.82 921.56 370.47 922.87 370.15C946.64 364.48 970.7 370.51 994.2 376.42C1003.7 378.82 1013.04 381.17 1022.2 382.68C1024.5 383.06 1026.79 383.39 1029.06 383.68C1046.49 385.68 1063.06 383.87 1078.4 372.43C1105.72 352.05 1101.32 332.43 1094.15 313.33C1093.83 312.46 1093.49 311.59 1093.15 310.71L1092.15 308.07L1091.91 307.46C1089.69 302.099 1087.78 296.613 1086.2 291.03C1085.13 287.155 1084.61 283.149 1084.65 279.13C1084.65 278.45 1084.71 277.78 1084.77 277.13C1084.83 276.48 1084.92 275.72 1085.03 275.02C1085.12 274.52 1085.2 274.02 1085.31 273.5L1085.96 273.65L1089.31 274.38C1089.2 274.92 1089.11 275.46 1089.03 276C1088.92 276.71 1088.84 277.42 1088.8 278.13C1088.8 278.64 1088.8 279.13 1088.8 279.66C1088.72 287.94 1092.16 296.75 1095.8 305.98C1096.36 307.39 1096.91 308.81 1097.46 310.24C1097.79 311.1 1098.12 311.96 1098.46 312.82C1098.8 313.68 1099.07 314.51 1099.37 315.36C1106.02 334.23 1108.91 354.9 1080.97 375.74C1062.73 389.35 1043.24 390.26 1022.8 386.98C1020.49 386.61 1018.18 386.19 1015.8 385.73C1008.41 384.25 1000.91 382.37 993.3 380.45C970.7 374.77 947.57 368.96 924.91 374.01C923.55 374.32 922.18 374.67 920.81 375.06C911.555 377.711 902.89 382.103 895.28 388C876.44 402.36 860.84 407.81 848.81 407.81C838.61 407.81 830.98 403.9 826.11 398.17C815.52 385.74 815.83 361.55 837.24 341.17C856.26 323.18 885.59 318.5 911.85 318.75H911.82ZM1188.7 224.46C1188.78 225.06 1188.88 225.65 1189 226.23C1172.43 247.53 1152.18 272.88 1135.2 291.02C1120.79 283.826 1105.66 278.19 1090.06 274.21C1093.06 262.45 1096.37 252.61 1101.3 247.89C1102.23 247.72 1104.75 247.43 1107.4 247.12C1124.83 245.11 1169.34 239.94 1188.73 224.46H1188.7ZM1210.12 265.62C1210.78 266.8 1211.65 268.26 1212.76 270.06L1213.84 271.88C1214.4 272.88 1214.99 273.81 1215.58 274.8C1215.67 275.018 1215.79 275.22 1215.94 275.4C1223.54 288.2 1233.22 304.57 1241.37 319.28C1244.7 325.28 1247.29 330.16 1249.32 334.14L1249.07 334.34C1249.8 335.27 1252.57 341.17 1255.74 348.34C1255.94 348.93 1256.08 349.41 1256.18 349.8C1255.07 349.56 1251.74 349.25 1239.66 348.44C1239.66 348.33 1239.66 348.23 1239.66 348.15L1239.85 346.61L1238.43 346C1237.89 345.77 1183.88 322.57 1167.17 310.49C1158.21 303.996 1148.79 298.151 1139 293C1155.27 275.57 1174.13 252 1190.42 231.14C1192.22 235.9 1195.03 240.21 1197.91 244.62C1200.39 248.241 1202.61 252.034 1204.56 255.97C1205.09 257 1206.89 260.12 1210.15 265.62H1210.12ZM1269 185.23C1262.55 198.57 1256.42 211.23 1264.43 227.75L1263.96 227.86C1264.04 228.19 1265.96 231.22 1268.31 234.68C1267.55 235.21 1266.72 235.86 1265.76 236.61C1258.66 242.14 1242.05 255.07 1210.95 258.88C1209.55 256.48 1208.59 254.81 1208.31 254.2C1206.28 250.083 1203.96 246.117 1201.37 242.33C1198.08 237.28 1194.99 232.54 1193.53 227.14C1193.3 226.277 1193.11 225.403 1192.97 224.52C1192.81 223.527 1192.71 222.525 1192.67 221.52C1192.67 220.94 1192.67 220.35 1192.67 219.75C1192.67 219.03 1192.75 218.29 1192.84 217.53C1192.93 216.77 1193.04 216.09 1193.18 215.35C1194.17 210.852 1195.86 206.536 1198.18 202.56C1199.18 200.76 1202.51 198.12 1206.61 195.16L1208.3 193.95L1209.96 192.78L1211.9 191.42C1214.59 189.54 1217.47 187.52 1220.37 185.42C1221.75 184.4 1223.13 183.356 1224.5 182.29L1224.84 182.03L1226.37 180.81C1226.91 180.38 1227.44 179.94 1227.96 179.51L1228.8 178.8L1229.52 178.18C1235.52 172.98 1240.81 167.24 1243.6 161.08C1245.04 158.057 1245.77 154.746 1245.73 151.4C1245.49 141.54 1248.73 135.56 1251.73 134.17C1252.3 133.906 1252.94 133.808 1253.56 133.887C1254.18 133.967 1254.77 134.221 1255.26 134.62C1255.27 135.057 1255.4 135.483 1255.63 135.857C1255.86 136.23 1256.18 136.538 1256.56 136.75C1256.65 137.94 1256.71 138.88 1256.7 139.2C1256.63 142 1256.44 144.66 1256.13 147.2C1255.83 149.734 1255.38 152.248 1254.79 154.73C1253.35 160.65 1250.94 166.287 1247.64 171.41L1251.09 173.62C1255.85 166.221 1258.9 157.855 1260.02 149.13C1260.31 147.13 1260.51 144.97 1260.65 142.78C1260.72 141.64 1260.77 140.48 1260.8 139.29C1260.8 138.29 1260.53 134.74 1260.14 130.18C1260.14 129.84 1260.08 129.5 1260.05 129.18C1260.88 127.53 1262.29 126.9 1263.76 126.25C1264.23 126.04 1264.7 125.82 1265.15 125.57C1265.69 126.78 1266.15 127.77 1266.27 128.17V128.24C1266.92 130.24 1267.47 132.14 1267.95 134.02C1268.43 135.9 1268.79 137.59 1269.09 139.33C1269.09 139.49 1269.09 139.66 1269.16 139.82C1269.48 141.711 1269.7 143.617 1269.82 145.53C1270.16 150.901 1269.71 156.292 1268.47 161.53L1272.47 162.46C1274.59 153.371 1274.56 143.913 1272.37 134.84C1271.97 133.073 1271.5 131.27 1270.95 129.43C1270.73 128.71 1270.5 127.98 1270.26 127.25C1270.26 127.15 1270.2 127.05 1270.16 126.95C1269.95 126.3 1269.16 124.52 1268.06 122.11V122L1268.13 121.89C1268.72 120.856 1269.51 119.951 1270.45 119.23C1270.78 118.966 1271.19 118.818 1271.61 118.81C1272.34 118.81 1273.48 119.81 1274.47 122.52C1275.18 124.45 1275.8 126.33 1276.35 128.16C1284.08 154 1276.1 170.53 1269 185.23ZM1112.51 149C1112.97 148.36 1113.43 147.72 1113.91 147.08C1114.59 146.17 1115.28 145.26 1116.01 144.35C1124.2 134.123 1133.65 124.979 1144.15 117.14C1144.88 116.59 1145.57 116.14 1146.15 115.64C1146.73 115.14 1147.6 114.64 1148.15 114.23C1148.7 113.82 1149.28 113.5 1149.7 113.23C1151.23 112.31 1152.74 111.456 1154.25 110.67C1156.05 113.936 1158.42 116.853 1161.25 119.28C1160.71 120.63 1160.25 121.9 1159.92 123.11C1159.66 124.02 1159.45 124.88 1159.28 125.71C1159.11 126.799 1159.02 127.898 1159 129C1158.65 132.406 1159.52 135.826 1161.44 138.66C1162.02 139.468 1162.69 140.206 1163.44 140.86C1164.03 141.395 1164.67 141.88 1165.34 142.31C1165.68 142.52 1166.01 142.72 1166.34 142.9C1168.34 152.19 1178.58 155.98 1184.15 158.05C1185.04 158.38 1186.09 158.77 1186.68 159.05C1187.81 167.14 1189.93 170.85 1192.56 172.95C1193.19 172.57 1193.86 172.21 1194.56 171.87C1195.27 171.5 1196.01 171.15 1196.76 170.87H1196.86C1201.65 168.834 1206.91 168.131 1212.07 168.835C1217.22 169.54 1222.1 171.624 1226.17 174.87L1226.72 175.32L1225.52 176.32L1225.14 176.64C1224.6 177.09 1224.05 177.53 1223.5 177.97C1219.2 174.521 1213.84 172.66 1208.32 172.7C1206.12 172.705 1203.94 172.987 1201.81 173.54C1200.99 173.752 1200.18 174.006 1199.39 174.3C1199.04 174.43 1198.68 174.56 1198.33 174.71C1197.98 174.86 1197.39 175.14 1196.92 175.37C1191.58 177.905 1187.29 182.242 1184.83 187.62C1183.54 190.365 1182.84 193.348 1182.76 196.38C1182.69 199.411 1183.25 202.425 1184.4 205.23C1185.59 208.075 1187.37 210.63 1189.64 212.72C1189.43 213.5 1189.26 214.26 1189.12 215.01C1188.98 215.76 1188.85 216.57 1188.76 217.32C1188.67 218.07 1188.63 218.61 1188.59 219.24C1172 235.51 1124.83 241 1107 243.05C1103.34 243.47 1101.5 243.69 1100.48 243.89L1101.33 243.35C1098.77 239.044 1096.66 234.491 1095.02 229.76C1099.89 222.1 1102.4 214.36 1099.37 203.76C1094.6 187.09 1098.6 169.34 1111.22 150.91C1111.61 150.29 1112.06 149.66 1112.51 149ZM527.22 267.29C530.48 268.79 538.52 283.06 546.12 297.29L502.55 303.91L498.09 304.58C509.91 290.41 520.14 277.35 527.22 267.29ZM531.28 265.41C531.41 263.33 528.74 260.28 520.12 251.17C516.21 247.03 510.29 240.76 509.8 239.3L505.8 239.99C506.17 242.16 509.38 245.74 517.18 253.99C519.91 256.87 523.63 260.8 525.7 263.35C525.041 263.619 524.477 264.078 524.08 264.67C515.98 276.22 504.58 290.61 492.02 305.54C467.02 309.34 441.88 313.15 416.95 316.85C421.72 311.85 435.26 294.54 478.66 234.85L482.28 229.85C485.02 226.12 487.52 222.41 489.93 218.85C501.82 201.19 511.21 187.25 536.15 187.25C554.29 187.25 581.87 226.99 602.01 256.01C610.46 268.18 617.9 278.91 623.83 285.8C600.25 289.17 575.68 292.8 550.46 296.63C541.24 279.41 535.52 269.54 531.28 265.41ZM628.67 285.14C622.67 278.67 614.67 267.07 605.34 253.7C583.53 222.28 556.34 183.18 536.11 183.18C508.99 183.18 498.56 198.66 486.49 216.59C484.1 220.14 481.62 223.82 478.94 227.49C478.26 228.41 477.01 230.13 475.3 232.49C427.5 298.19 414.99 313.68 412.91 315.1C412.989 315.046 413.077 315.005 413.17 314.98L413.97 317.3L398.22 319.62C402.22 315.84 414.55 300.34 460.79 236.78C462.48 234.46 463.71 232.78 464.38 231.85L467.24 227.93C482.89 206.39 506.44 174 534.32 174H535.54C565.59 175 601.4 225.9 625.09 259.56C631.64 268.87 637.53 277.22 642.34 283.21C637.82 283.85 633.27 284.48 628.67 285.14ZM103.81 435.42C103.81 434.73 103.81 434.06 103.87 433.36C103.93 432.66 103.93 431.99 103.95 431.36C104.28 423.18 104.84 414.48 105.44 405.44C111.01 404.82 115.76 404.1 120.35 403.39C130.57 401.83 139.4 400.47 154 400.76H154.91C155.59 400.76 156.28 400.76 156.96 400.76H158.96C195.53 401.22 235.83 398.92 275.22 396.53L280.47 396.21L282.47 396.08C321.13 393.72 361.1 391.28 397.98 391.28C399.55 391.28 403.59 391.16 409.57 390.95L416.71 390.68C464.96 388.79 590.27 382.96 647.2 379.33C660.95 378.45 670.71 377.7 674.43 377.17C674.875 377.118 675.316 377.038 675.75 376.93C678.48 376.2 684.87 376.14 691.04 376.08C696.68 376.08 701.3 375.94 704.91 375.63L704.79 377.82L704.56 381.89L701.1 442.71H103.65C103.67 440.35 103.73 437.91 103.81 435.42ZM1271.05 225.3C1272.36 226.805 1273.51 228.436 1274.49 230.17C1275.13 231.17 1275.86 232.32 1276.71 233.62C1277.01 234.08 1277.81 235.12 1279.46 237.24C1281.9 240.37 1287.22 247.24 1288.79 249.91L1287.53 251.02C1287.1 251.4 1286.67 251.78 1286.29 252.1C1283.78 248.713 1281.27 245.3 1278.76 241.86C1277.76 238.77 1275.31 236.11 1273.15 234.03C1273.08 233.964 1273.01 233.904 1272.93 233.85L1272.65 233.46C1271.14 231.39 1269.78 229.215 1268.59 226.95C1269.35 226.32 1270.18 225.767 1271.05 225.3ZM1248.55 71.7698C1263.38 75.5398 1273.73 85.0298 1276.94 97.7698C1278.49 104.226 1278.28 110.981 1276.34 117.33C1275.84 116.579 1275.17 115.952 1274.39 115.495C1273.61 115.038 1272.74 114.763 1271.84 114.69C1271.55 114.665 1271.26 114.665 1270.97 114.69C1271.19 111.52 1270.81 108.55 1268.08 105.93C1262.91 100.93 1260.5 95.3398 1258.37 90.3598C1254.82 82.0698 1251.47 74.2398 1236.99 74.2398H1236.17C1234.12 74.2398 1231.1 75.2398 1228.17 76.2398C1226.53 76.8168 1224.86 77.301 1223.17 77.6898C1221.38 75.2975 1219.11 73.3051 1216.51 71.8398C1227.88 69.3698 1238.69 69.2598 1248.55 71.7698ZM1094.13 199.41C1094.45 201.261 1094.87 203.094 1095.39 204.9C1096.43 208.117 1096.79 211.516 1096.45 214.88C1096.1 218.245 1095.06 221.5 1093.39 224.44C1091.36 216.66 1090.65 207.57 1094.13 199.41ZM1025 181.29C1012.58 192.37 1001.85 201.93 997.33 210.73L995.54 214.22L940.89 187.28C927.69 178.53 898.48 158.04 890.16 151.59C899.24 149.02 931.72 143.7 962.25 139.88C967.55 139.22 988.92 135.2 1009.07 130.65C1022.25 127.65 1031.07 125.36 1037.07 123.51C1037.64 123.51 1038.23 123.51 1038.84 123.51C1043.43 123.51 1049.08 122.57 1054.84 121.6C1059.6 120.691 1064.41 120.08 1069.25 119.77C1068.72 142.26 1045.51 163 1025 181.29ZM1046.69 55.8698L1048.3 53.0198C1049.16 51.5098 1050.12 49.8298 1051.2 47.8998C1061.15 30.1498 1067.1 28.0298 1083.97 25.2098L1086.84 24.7398L1088.08 24.5298L1088.82 24.4198L1089.71 24.2898C1091.4 24.0383 1093.1 23.908 1094.8 23.8998C1101.08 23.8998 1104.48 25.8998 1104.95 27.7198C1105.63 30.3798 1101.13 35.0898 1089.66 39.1398C1089.21 39.2935 1088.78 39.5124 1088.39 39.7898C1085.31 39.9598 1081.81 40.2098 1078.39 40.5298C1077.5 40.6098 1076.61 40.6998 1075.74 40.7998C1074.87 40.8998 1073.96 40.9998 1073.1 41.0998C1070.54 41.3956 1067.99 41.8229 1065.47 42.3798C1065.15 42.4438 1064.84 42.5737 1064.58 42.7613C1064.31 42.9489 1064.08 43.1901 1063.91 43.4698C1064.15 43.0662 1064.54 42.7725 1065 42.6498L1065.39 46.7298C1065.88 46.7048 1066.36 46.5532 1066.77 46.2898C1067.77 46.0698 1068.87 45.8598 1070.14 45.6598C1070.98 45.5298 1071.87 45.3998 1072.81 45.2798C1073.75 45.1598 1074.56 45.0598 1075.48 44.9498C1082.06 44.1901 1088.68 43.7662 1095.3 43.6798C1099.3 43.8698 1100.3 44.4998 1100.48 44.9298C1101.05 46.2098 1099.58 52.7698 1093.48 55.5198C1091.93 56.2198 1090.69 56.7598 1089.68 57.1998C1088.2 57.3898 1085.68 57.6498 1083.08 57.9198L1080.6 58.1698C1074.83 58.7598 1069.77 59.2898 1066.04 59.7698L1065.11 59.8898L1063.39 60.1398C1062.28 60.3098 1061.39 60.4798 1060.71 60.6398L1060.23 60.7598C1059.86 60.8553 1059.49 60.932 1059.12 60.9898C1056.6 61.4223 1054.12 62.1125 1051.74 63.0498L1053.27 66.8498C1054.73 66.2666 1056.24 65.8018 1057.77 65.4598C1058.57 65.2698 1059.29 65.1398 1059.88 65.0298L1060.47 64.9098C1060.78 64.8567 1061.08 64.7867 1061.38 64.6998C1062 64.5382 1062.62 64.4113 1063.25 64.3198C1067.13 63.6698 1074.99 62.8698 1081.02 62.2498L1082.69 62.0798L1084.75 61.8698C1084.94 62.2357 1085.23 62.5482 1085.57 62.7798L1085.63 62.8298C1085.62 63.803 1085.36 64.7568 1084.87 65.5998C1084.62 66.1598 1084.3 66.7998 1083.87 67.5998C1083 69.0178 1081.78 70.194 1080.34 71.0198C1079.89 71.3067 1079.43 71.5703 1078.95 71.8098C1077.86 72.3686 1076.73 72.853 1075.57 73.2598C1074.5 73.6498 1073.44 73.9898 1072.44 74.2598C1067.16 74.1398 1060.06 76.9898 1054.17 79.4298L1053.51 79.6998L1051.02 80.6998C1049.89 81.1598 1048.83 81.5598 1048.02 81.8198C1047.64 81.9538 1047.26 82.0509 1046.86 82.1098H1046.39L1045.65 82.5398L1046.65 84.2298L1047.11 85.0498L1047.2 86.1698C1047.42 86.1698 1047.66 86.1098 1047.92 86.0598C1048.91 85.839 1049.89 85.538 1050.83 85.1598C1052 84.7198 1053.4 84.1598 1055.11 83.4398C1058.28 82.1298 1062.11 80.5298 1065.7 79.4398C1065.99 79.8671 1066.38 80.2119 1066.84 80.4398C1068.93 81.5298 1068.84 82.4998 1068.84 82.9098C1068.24 88.5798 1050.37 98.7698 1046.61 99.8098C1043.11 100.816 1039.9 102.648 1037.26 105.15C1035.48 106.73 1034.14 108.736 1033.35 110.98C1033.16 111.629 1033.09 112.305 1033.13 112.98C1033.15 113.219 1033.18 113.456 1033.23 113.69C1032.84 114.806 1032.66 115.988 1032.72 117.17C1032.3 116.884 1031.9 116.57 1031.52 116.23C1030.98 115.721 1030.49 115.155 1030.07 114.54C1029.6 113.881 1029.21 113.17 1028.9 112.42C1025.61 104.13 1031.66 90.7098 1035.28 82.6898C1036.4 80.2198 1037.28 78.2698 1037.75 76.8198C1040.52 68.3398 1042.11 64.4198 1044.44 59.9598C1045.06 58.7098 1045.8 57.3698 1046.65 55.8698H1046.69ZM1139.37 43.3298C1142.49 49.5098 1129.76 58.6498 1119.97 64.9598C1124.97 56.9598 1130.25 48.7998 1134.68 41.8798C1136.93 41.6498 1138.66 41.9998 1139.33 43.3298H1139.37ZM832.89 215.93C822.79 205.74 814.82 197.69 812.65 195.68C801.89 185.68 786.51 161.07 786.01 137.45C785.74 124.45 790.01 113.45 798.64 104.72C820.04 83.1698 832.07 81.7198 856.04 78.9298C862.41 78.1798 869.64 77.3298 878.04 75.9298C903.26 71.8698 986.66 62.1598 1039.7 60.1198C1037.37 65.1161 1035.39 70.2725 1033.79 75.5498C1033.39 76.7798 1032.5 78.7398 1031.48 80.9998C1027.6 89.6198 1021.1 104 1025.03 113.94C1025.86 116.035 1027.18 117.903 1028.87 119.39C1029.19 120.066 1029.63 120.674 1030.18 121.18C1008.7 127.04 970.98 134.61 961.69 135.77C945.36 137.77 926.92 140.5 912.36 142.96C906.26 143.96 901.55 144.85 897.87 145.59C893.1 146.12 874.62 149.16 864.71 155.18L866.84 158.68C871.56 155.82 878.45 153.68 884.68 152.17C884.94 152.62 886.03 154.17 914.95 174.45C924.4 181.09 930.95 185.61 935.56 188.69L882.4 263.82L882.82 264.7H881.71C867.12 250.5 846.36 229.53 832.89 215.93ZM468.89 138.38C497.09 109.53 531.61 92.3098 561.28 92.3098H561.38C580.95 92.3098 597.84 99.5198 611.57 113.65C648.88 152.05 666.78 181.57 685.73 212.82C693.73 226.08 701.96 239.58 711.86 254.32L710.72 274.38C690.72 276.7 669.47 279.47 647.11 282.56C642.17 276.68 635.73 267.56 628.46 257.21C602.85 220.83 567.78 171.01 535.69 169.91C505.11 168.91 480.32 202.91 463.93 225.51L461.08 229.42C460.41 230.33 459.17 232.03 457.49 234.35C409.66 300.1 397.14 315.59 395.06 317.01C395.143 316.963 395.23 316.923 395.32 316.89L396.32 319.89C371.86 323.46 347.66 326.89 324 330.09C362.68 271.21 417.13 191.35 468.88 138.38H468.89Z" fill="black"/>
</svg>
